<svg width="112" height="57" viewBox="0 0 112 57" fill="none" xmlns="http://www.w3.org/2000/svg">
<path d="M57.0485 32.7268L55.6408 17.7119H60.4405L60.8609 27.3308H60.9879L64.7612 17.7119H69.4436L70.0692 27.2624H70.1963L73.7643 17.7119H78.564L72.1416 32.7268H67.0291L66.1298 23.9779H65.9636L62.1707 32.7268H57.0485ZM84.6565 33.0103C83.0729 33.0103 81.7663 32.6844 80.7366 32.0328C79.7134 31.3811 78.9933 30.472 78.5762 29.3054C78.1591 28.1389 78.0777 26.7834 78.3318 25.2389C78.586 23.7009 79.1106 22.3519 79.9057 21.1919C80.7007 20.0319 81.7174 19.1293 82.9556 18.4841C84.1938 17.8389 85.5982 17.5164 87.1688 17.5164C88.7459 17.5164 90.046 17.8422 91.0691 18.4939C92.0988 19.1456 92.8222 20.0547 93.2393 21.2212C93.6629 22.3877 93.7476 23.7465 93.4934 25.2975C93.2393 26.8355 92.7114 28.1845 91.9098 29.3445C91.1082 30.498 90.0916 31.3974 88.8599 32.0425C87.6282 32.6877 86.2271 33.0103 84.6565 33.0103ZM85.1941 29.4032C85.7807 29.4032 86.3053 29.2272 86.768 28.8753C87.2372 28.5234 87.6315 28.0314 87.9508 27.3992C88.2701 26.7671 88.4982 26.0339 88.6351 25.1998C88.7719 24.3787 88.785 23.6585 88.6742 23.0394C88.5699 22.4138 88.3483 21.9283 88.0094 21.5829C87.6706 21.231 87.2111 21.055 86.6311 21.055C86.0446 21.055 85.5167 21.2343 85.0475 21.5927C84.5783 21.9446 84.184 22.4366 83.8647 23.0688C83.5519 23.6944 83.3271 24.4275 83.1902 25.2682C83.0533 26.0893 83.037 26.8095 83.1413 27.4286C83.2456 28.0477 83.4704 28.5332 83.8158 28.8851C84.1612 29.2305 84.6207 29.4032 85.1941 29.4032ZM99.6568 28.7873L100.625 23.0883H101.279L106.421 17.7119H111.837L104.29 25.4148H103.029L99.6568 28.7873ZM94.7007 32.7268L98.0243 12.7069H102.804L99.4808 32.7268H94.7007ZM104.026 32.7268L101.133 26.4901L104.857 23.0981L109.549 32.7268H104.026Z" fill="#8B9467"/>
<path d="M5.59442 32.3459H0.393928L10.4723 12.326H16.9143L20.3454 32.3459H15.1449L12.9455 17.3701H12.7891L5.59442 32.3459ZM6.22004 24.467H17.0902L16.4646 28.1425H5.59442L6.22004 24.467ZM33.1805 17.331L32.5842 20.8501H22.9261L23.5224 17.331H33.1805ZM23.0141 32.3459L25.6534 16.5685C25.8424 15.4085 26.2171 14.4473 26.7776 13.6848C27.3381 12.9158 28.0386 12.3423 28.8793 11.9643C29.72 11.5798 30.6454 11.3876 31.6555 11.3876C32.3267 11.3876 32.9491 11.4397 33.5226 11.544C34.0961 11.6418 34.5132 11.7297 34.7738 11.8079L33.4542 15.3075C33.2782 15.2489 33.0697 15.2 32.8285 15.1609C32.5939 15.1218 32.3626 15.1022 32.1345 15.1022C31.5806 15.1022 31.1798 15.226 30.9321 15.4737C30.6845 15.7213 30.5216 16.0602 30.4434 16.4903L27.7942 32.3459H23.0141ZM32.985 32.3459L35.4874 17.331H40.1307L39.6713 20.0681H39.8277C40.2643 19.0775 40.8346 18.3411 41.5384 17.8589C42.2422 17.3701 43.0047 17.1257 43.8258 17.1257C44.0474 17.1257 44.269 17.142 44.4905 17.1746C44.7186 17.2007 44.9337 17.2398 45.1357 17.2919L44.4319 21.4562C44.2103 21.3715 43.9203 21.3096 43.5619 21.2705C43.2035 21.2249 42.8776 21.202 42.5843 21.202C42.0174 21.202 41.4895 21.3291 41.0007 21.5833C40.5185 21.8309 40.1079 22.1796 39.769 22.6292C39.4367 23.0724 39.2184 23.5937 39.1141 24.1933L37.7651 32.3459H32.985ZM44.5712 32.3459L47.0737 17.331H51.8538L49.3513 32.3459H44.5712ZM49.801 15.5714C49.1232 15.5714 48.5726 15.3466 48.149 14.8969C47.7254 14.4473 47.5592 13.9096 47.6504 13.284C47.7417 12.6519 48.061 12.1142 48.6084 11.6711C49.1558 11.2279 49.7652 11.0064 50.4364 11.0064C51.1142 11.0064 51.6583 11.2279 52.0689 11.6711C52.486 12.1142 52.6489 12.6519 52.5576 13.284C52.4794 13.9096 52.1666 14.4473 51.6192 14.8969C51.0783 15.3466 50.4722 15.5714 49.801 15.5714Z" fill="#161B04"/>
<path d="M55.3721 12.4951L55.8719 15.9937H60.3701V13.9945L67.3674 5.99764L72.3654 5.49784L73.8648 8.49666L89.3587 9.99607L95.3564 20.4919L96.8493 12.2188L92.8573 4.49823L76.8636 2.99882L75.3642 0L64.3685 0.999607L55.3721 12.4951Z" fill="#8B9467"/>
<path d="M94.8567 33.9866H99.3549L98.8551 40.9838L95.3565 43.9826L94.8567 48.9807L88.8591 55.4781L81.8618 56.4777L76.8638 42.4832L79.3628 35.9858C80.8622 36.9854 83.5278 36.8188 85.3604 36.4856L82.3616 42.4832L85.3604 50.4801H86.36L89.8587 46.4817L90.3585 41.4836L94.3569 38.4848L94.8567 33.9866Z" fill="#8B9467"/>
<path d="M106.056 40.4841H104.057C102.058 43.6829 102.224 46.9816 102.558 48.481L105.057 48.9808L107.556 42.9831L108.055 37.9851L106.056 40.4841Z" fill="#8B9467"/>
</svg>
